<?xml version="1.0" encoding="utf-8"?>
<svg xmlns="http://www.w3.org/2000/svg" xmlns:xlink="http://www.w3.org/1999/xlink" width="320" height="200" viewBox="0 0 1280 800">
<defs>
  <clipPath id="clip260">
    <rect x="0" y="0" width="1280" height="800"/>
  </clipPath>
</defs>
<path clip-path="url(#clip260)" d="
M0 800 L1280 800 L1280 0 L0 0  Z
  " fill="#ffffff" fill-rule="evenodd" fill-opacity="1"/>
<defs>
  <clipPath id="clip261">
    <rect x="256" y="0" width="897" height="800"/>
  </clipPath>
</defs>
<path clip-path="url(#clip260)" d="
M211.855 644.41 L1232.76 644.41 L1232.76 47.2441 L211.855 47.2441  Z
  " fill="#ffffff" fill-rule="evenodd" fill-opacity="1"/>
<defs>
  <clipPath id="clip262">
    <rect x="211" y="47" width="1022" height="598"/>
  </clipPath>
</defs>
<polyline clip-path="url(#clip262)" style="stroke:#000000; stroke-linecap:butt; stroke-linejoin:round; stroke-width:2; stroke-opacity:0.1; fill:none" points="
  240.749,644.41 240.749,47.2441 
  "/>
<polyline clip-path="url(#clip262)" style="stroke:#000000; stroke-linecap:butt; stroke-linejoin:round; stroke-width:2; stroke-opacity:0.1; fill:none" points="
  292.493,644.41 292.493,47.2441 
  "/>
<polyline clip-path="url(#clip262)" style="stroke:#000000; stroke-linecap:butt; stroke-linejoin:round; stroke-width:2; stroke-opacity:0.1; fill:none" points="
  340.899,644.41 340.899,47.2441 
  "/>
<polyline clip-path="url(#clip262)" style="stroke:#000000; stroke-linecap:butt; stroke-linejoin:round; stroke-width:2; stroke-opacity:0.1; fill:none" points="
  392.644,644.41 392.644,47.2441 
  "/>
<polyline clip-path="url(#clip262)" style="stroke:#000000; stroke-linecap:butt; stroke-linejoin:round; stroke-width:2; stroke-opacity:0.1; fill:none" points="
  442.719,644.41 442.719,47.2441 
  "/>
<polyline clip-path="url(#clip262)" style="stroke:#000000; stroke-linecap:butt; stroke-linejoin:round; stroke-width:2; stroke-opacity:0.1; fill:none" points="
  494.463,644.41 494.463,47.2441 
  "/>
<polyline clip-path="url(#clip262)" style="stroke:#000000; stroke-linecap:butt; stroke-linejoin:round; stroke-width:2; stroke-opacity:0.1; fill:none" points="
  544.539,644.41 544.539,47.2441 
  "/>
<polyline clip-path="url(#clip262)" style="stroke:#000000; stroke-linecap:butt; stroke-linejoin:round; stroke-width:2; stroke-opacity:0.1; fill:none" points="
  596.283,644.41 596.283,47.2441 
  "/>
<polyline clip-path="url(#clip262)" style="stroke:#000000; stroke-linecap:butt; stroke-linejoin:round; stroke-width:2; stroke-opacity:0.1; fill:none" points="
  648.027,644.41 648.027,47.2441 
  "/>
<polyline clip-path="url(#clip262)" style="stroke:#000000; stroke-linecap:butt; stroke-linejoin:round; stroke-width:2; stroke-opacity:0.1; fill:none" points="
  698.103,644.41 698.103,47.2441 
  "/>
<polyline clip-path="url(#clip262)" style="stroke:#000000; stroke-linecap:butt; stroke-linejoin:round; stroke-width:2; stroke-opacity:0.1; fill:none" points="
  749.847,644.41 749.847,47.2441 
  "/>
<polyline clip-path="url(#clip262)" style="stroke:#000000; stroke-linecap:butt; stroke-linejoin:round; stroke-width:2; stroke-opacity:0.1; fill:none" points="
  799.922,644.41 799.922,47.2441 
  "/>
<polyline clip-path="url(#clip262)" style="stroke:#000000; stroke-linecap:butt; stroke-linejoin:round; stroke-width:2; stroke-opacity:0.1; fill:none" points="
  851.667,644.41 851.667,47.2441 
  "/>
<polyline clip-path="url(#clip262)" style="stroke:#000000; stroke-linecap:butt; stroke-linejoin:round; stroke-width:2; stroke-opacity:0.1; fill:none" points="
  903.411,644.41 903.411,47.2441 
  "/>
<polyline clip-path="url(#clip262)" style="stroke:#000000; stroke-linecap:butt; stroke-linejoin:round; stroke-width:2; stroke-opacity:0.1; fill:none" points="
  950.148,644.41 950.148,47.2441 
  "/>
<polyline clip-path="url(#clip262)" style="stroke:#000000; stroke-linecap:butt; stroke-linejoin:round; stroke-width:2; stroke-opacity:0.1; fill:none" points="
  1001.89,644.41 1001.89,47.2441 
  "/>
<polyline clip-path="url(#clip262)" style="stroke:#000000; stroke-linecap:butt; stroke-linejoin:round; stroke-width:2; stroke-opacity:0.1; fill:none" points="
  1051.97,644.41 1051.97,47.2441 
  "/>
<polyline clip-path="url(#clip262)" style="stroke:#000000; stroke-linecap:butt; stroke-linejoin:round; stroke-width:2; stroke-opacity:0.1; fill:none" points="
  1103.71,644.41 1103.71,47.2441 
  "/>
<polyline clip-path="url(#clip262)" style="stroke:#000000; stroke-linecap:butt; stroke-linejoin:round; stroke-width:2; stroke-opacity:0.1; fill:none" points="
  1153.79,644.41 1153.79,47.2441 
  "/>
<polyline clip-path="url(#clip260)" style="stroke:#000000; stroke-linecap:butt; stroke-linejoin:round; stroke-width:4; stroke-opacity:1; fill:none" points="
  211.855,644.41 1232.76,644.41 
  "/>
<polyline clip-path="url(#clip260)" style="stroke:#000000; stroke-linecap:butt; stroke-linejoin:round; stroke-width:4; stroke-opacity:1; fill:none" points="
  240.749,644.41 240.749,637.244 
  "/>
<polyline clip-path="url(#clip260)" style="stroke:#000000; stroke-linecap:butt; stroke-linejoin:round; stroke-width:4; stroke-opacity:1; fill:none" points="
  292.493,644.41 292.493,637.244 
  "/>
<polyline clip-path="url(#clip260)" style="stroke:#000000; stroke-linecap:butt; stroke-linejoin:round; stroke-width:4; stroke-opacity:1; fill:none" points="
  340.899,644.41 340.899,637.244 
  "/>
<polyline clip-path="url(#clip260)" style="stroke:#000000; stroke-linecap:butt; stroke-linejoin:round; stroke-width:4; stroke-opacity:1; fill:none" points="
  392.644,644.41 392.644,637.244 
  "/>
<polyline clip-path="url(#clip260)" style="stroke:#000000; stroke-linecap:butt; stroke-linejoin:round; stroke-width:4; stroke-opacity:1; fill:none" points="
  442.719,644.41 442.719,637.244 
  "/>
<polyline clip-path="url(#clip260)" style="stroke:#000000; stroke-linecap:butt; stroke-linejoin:round; stroke-width:4; stroke-opacity:1; fill:none" points="
  494.463,644.41 494.463,637.244 
  "/>
<polyline clip-path="url(#clip260)" style="stroke:#000000; stroke-linecap:butt; stroke-linejoin:round; stroke-width:4; stroke-opacity:1; fill:none" points="
  544.539,644.41 544.539,637.244 
  "/>
<polyline clip-path="url(#clip260)" style="stroke:#000000; stroke-linecap:butt; stroke-linejoin:round; stroke-width:4; stroke-opacity:1; fill:none" points="
  596.283,644.41 596.283,637.244 
  "/>
<polyline clip-path="url(#clip260)" style="stroke:#000000; stroke-linecap:butt; stroke-linejoin:round; stroke-width:4; stroke-opacity:1; fill:none" points="
  648.027,644.41 648.027,637.244 
  "/>
<polyline clip-path="url(#clip260)" style="stroke:#000000; stroke-linecap:butt; stroke-linejoin:round; stroke-width:4; stroke-opacity:1; fill:none" points="
  698.103,644.41 698.103,637.244 
  "/>
<polyline clip-path="url(#clip260)" style="stroke:#000000; stroke-linecap:butt; stroke-linejoin:round; stroke-width:4; stroke-opacity:1; fill:none" points="
  749.847,644.41 749.847,637.244 
  "/>
<polyline clip-path="url(#clip260)" style="stroke:#000000; stroke-linecap:butt; stroke-linejoin:round; stroke-width:4; stroke-opacity:1; fill:none" points="
  799.922,644.41 799.922,637.244 
  "/>
<polyline clip-path="url(#clip260)" style="stroke:#000000; stroke-linecap:butt; stroke-linejoin:round; stroke-width:4; stroke-opacity:1; fill:none" points="
  851.667,644.41 851.667,637.244 
  "/>
<polyline clip-path="url(#clip260)" style="stroke:#000000; stroke-linecap:butt; stroke-linejoin:round; stroke-width:4; stroke-opacity:1; fill:none" points="
  903.411,644.41 903.411,637.244 
  "/>
<polyline clip-path="url(#clip260)" style="stroke:#000000; stroke-linecap:butt; stroke-linejoin:round; stroke-width:4; stroke-opacity:1; fill:none" points="
  950.148,644.41 950.148,637.244 
  "/>
<polyline clip-path="url(#clip260)" style="stroke:#000000; stroke-linecap:butt; stroke-linejoin:round; stroke-width:4; stroke-opacity:1; fill:none" points="
  1001.89,644.41 1001.89,637.244 
  "/>
<polyline clip-path="url(#clip260)" style="stroke:#000000; stroke-linecap:butt; stroke-linejoin:round; stroke-width:4; stroke-opacity:1; fill:none" points="
  1051.97,644.41 1051.97,637.244 
  "/>
<polyline clip-path="url(#clip260)" style="stroke:#000000; stroke-linecap:butt; stroke-linejoin:round; stroke-width:4; stroke-opacity:1; fill:none" points="
  1103.71,644.41 1103.71,637.244 
  "/>
<polyline clip-path="url(#clip260)" style="stroke:#000000; stroke-linecap:butt; stroke-linejoin:round; stroke-width:4; stroke-opacity:1; fill:none" points="
  1153.79,644.41 1153.79,637.244 
  "/>
<path clip-path="url(#clip260)" d="M241.964 661.562 L246.64 661.562 L246.64 693.714 Q246.64 699.964 244.256 702.788 Q241.895 705.613 236.64 705.613 L234.858 705.613 L234.858 701.677 L236.316 701.677 Q239.418 701.677 240.691 699.941 Q241.964 698.205 241.964 693.714 L241.964 661.562 Z" fill="#000000" fill-rule="evenodd" fill-opacity="1" /><path clip-path="url(#clip260)" d="M282.563 661.562 L302.424 661.562 L302.424 665.497 L287.239 665.497 L287.239 675.682 L300.942 675.682 L300.942 679.617 L287.239 679.617 L287.239 696.122 L282.563 696.122 L282.563 661.562 Z" fill="#000000" fill-rule="evenodd" fill-opacity="1" /><path clip-path="url(#clip260)" d="M325.089 661.562 L332.057 661.562 L340.876 685.08 L349.742 661.562 L356.709 661.562 L356.709 696.122 L352.149 696.122 L352.149 665.775 L343.237 689.478 L338.538 689.478 L329.626 665.775 L329.626 696.122 L325.089 696.122 L325.089 661.562 Z" fill="#000000" fill-rule="evenodd" fill-opacity="1" /><path clip-path="url(#clip260)" d="M392.644 666.168 L386.301 683.367 L399.009 683.367 L392.644 666.168 M390.005 661.562 L395.306 661.562 L408.477 696.122 L403.616 696.122 L400.468 687.256 L384.889 687.256 L381.741 696.122 L376.81 696.122 L390.005 661.562 Z" fill="#000000" fill-rule="evenodd" fill-opacity="1" /><path clip-path="url(#clip260)" d="M426.909 661.562 L433.876 661.562 L442.696 685.08 L451.562 661.562 L458.529 661.562 L458.529 696.122 L453.969 696.122 L453.969 665.775 L445.057 689.478 L440.358 689.478 L431.446 665.775 L431.446 696.122 L426.909 696.122 L426.909 661.562 Z" fill="#000000" fill-rule="evenodd" fill-opacity="1" /><path clip-path="url(#clip260)" d="M495.679 661.562 L500.355 661.562 L500.355 693.714 Q500.355 699.964 497.97 702.788 Q495.609 705.613 490.355 705.613 L488.572 705.613 L488.572 701.677 L490.031 701.677 Q493.132 701.677 494.405 699.941 Q495.679 698.205 495.679 693.714 L495.679 661.562 Z" fill="#000000" fill-rule="evenodd" fill-opacity="1" /><path clip-path="url(#clip260)" d="M545.754 661.562 L550.43 661.562 L550.43 693.714 Q550.43 699.964 548.046 702.788 Q545.684 705.613 540.43 705.613 L538.647 705.613 L538.647 701.677 L540.106 701.677 Q543.208 701.677 544.481 699.941 Q545.754 698.205 545.754 693.714 L545.754 661.562 Z" fill="#000000" fill-rule="evenodd" fill-opacity="1" /><path clip-path="url(#clip260)" d="M596.283 666.168 L589.94 683.367 L602.649 683.367 L596.283 666.168 M593.644 661.562 L598.945 661.562 L612.116 696.122 L607.255 696.122 L604.107 687.256 L588.528 687.256 L585.38 696.122 L580.45 696.122 L593.644 661.562 Z" fill="#000000" fill-rule="evenodd" fill-opacity="1" /><path clip-path="url(#clip260)" d="M658.108 662.696 L658.108 667.256 Q655.446 665.983 653.085 665.358 Q650.724 664.733 648.525 664.733 Q644.706 664.733 642.622 666.215 Q640.562 667.696 640.562 670.428 Q640.562 672.719 641.928 673.9 Q643.317 675.057 647.159 675.775 L649.983 676.353 Q655.215 677.349 657.692 679.872 Q660.192 682.372 660.192 686.585 Q660.192 691.608 656.812 694.201 Q653.456 696.793 646.951 696.793 Q644.497 696.793 641.72 696.238 Q638.965 695.682 636.002 694.594 L636.002 689.779 Q638.849 691.376 641.581 692.187 Q644.312 692.997 646.951 692.997 Q650.956 692.997 653.132 691.423 Q655.307 689.849 655.307 686.932 Q655.307 684.386 653.733 682.951 Q652.182 681.515 648.618 680.798 L645.77 680.242 Q640.539 679.201 638.201 676.978 Q635.863 674.756 635.863 670.798 Q635.863 666.215 639.081 663.576 Q642.321 660.937 647.993 660.937 Q650.423 660.937 652.946 661.377 Q655.47 661.816 658.108 662.696 Z" fill="#000000" fill-rule="evenodd" fill-opacity="1" /><path clip-path="url(#clip260)" d="M698.126 664.733 Q693.033 664.733 690.024 668.529 Q687.038 672.326 687.038 678.877 Q687.038 685.404 690.024 689.201 Q693.033 692.997 698.126 692.997 Q703.218 692.997 706.181 689.201 Q709.167 685.404 709.167 678.877 Q709.167 672.326 706.181 668.529 Q703.218 664.733 698.126 664.733 M698.126 660.937 Q705.394 660.937 709.746 665.821 Q714.098 670.682 714.098 678.877 Q714.098 687.048 709.746 691.932 Q705.394 696.793 698.126 696.793 Q690.834 696.793 686.459 691.932 Q682.107 687.071 682.107 678.877 Q682.107 670.682 686.459 665.821 Q690.834 660.937 698.126 660.937 Z" fill="#000000" fill-rule="evenodd" fill-opacity="1" /><path clip-path="url(#clip260)" d="M736.768 661.562 L743.065 661.562 L758.389 690.474 L758.389 661.562 L762.926 661.562 L762.926 696.122 L756.629 696.122 L741.305 667.21 L741.305 696.122 L736.768 696.122 L736.768 661.562 Z" fill="#000000" fill-rule="evenodd" fill-opacity="1" /><path clip-path="url(#clip260)" d="M790.073 665.404 L790.073 692.279 L795.721 692.279 Q802.874 692.279 806.184 689.039 Q809.517 685.798 809.517 678.807 Q809.517 671.863 806.184 668.645 Q802.874 665.404 795.721 665.404 L790.073 665.404 M785.397 661.562 L795.003 661.562 Q805.05 661.562 809.749 665.752 Q814.448 669.918 814.448 678.807 Q814.448 687.742 809.725 691.932 Q805.003 696.122 795.003 696.122 L785.397 696.122 L785.397 661.562 Z" fill="#000000" fill-rule="evenodd" fill-opacity="1" /><path clip-path="url(#clip260)" d="M852.882 661.562 L857.558 661.562 L857.558 693.714 Q857.558 699.964 855.174 702.788 Q852.813 705.613 847.558 705.613 L845.776 705.613 L845.776 701.677 L847.234 701.677 Q850.336 701.677 851.609 699.941 Q852.882 698.205 852.882 693.714 L852.882 661.562 Z" fill="#000000" fill-rule="evenodd" fill-opacity="1" /><path clip-path="url(#clip260)" d="M893.481 661.562 L913.342 661.562 L913.342 665.497 L898.156 665.497 L898.156 675.682 L911.86 675.682 L911.86 679.617 L898.156 679.617 L898.156 696.122 L893.481 696.122 L893.481 661.562 Z" fill="#000000" fill-rule="evenodd" fill-opacity="1" /><path clip-path="url(#clip260)" d="M934.338 661.562 L941.305 661.562 L950.125 685.08 L958.991 661.562 L965.958 661.562 L965.958 696.122 L961.398 696.122 L961.398 665.775 L952.486 689.478 L947.787 689.478 L938.875 665.775 L938.875 696.122 L934.338 696.122 L934.338 661.562 Z" fill="#000000" fill-rule="evenodd" fill-opacity="1" /><path clip-path="url(#clip260)" d="M1001.89 666.168 L995.55 683.367 L1008.26 683.367 L1001.89 666.168 M999.254 661.562 L1004.55 661.562 L1017.73 696.122 L1012.86 696.122 L1009.72 687.256 L994.138 687.256 L990.99 696.122 L986.059 696.122 L999.254 661.562 Z" fill="#000000" fill-rule="evenodd" fill-opacity="1" /><path clip-path="url(#clip260)" d="M1036.16 661.562 L1043.13 661.562 L1051.94 685.08 L1060.81 661.562 L1067.78 661.562 L1067.78 696.122 L1063.22 696.122 L1063.22 665.775 L1054.31 689.478 L1049.61 689.478 L1040.69 665.775 L1040.69 696.122 L1036.16 696.122 L1036.16 661.562 Z" fill="#000000" fill-rule="evenodd" fill-opacity="1" /><path clip-path="url(#clip260)" d="M1104.93 661.562 L1109.6 661.562 L1109.6 693.714 Q1109.6 699.964 1107.22 702.788 Q1104.86 705.613 1099.6 705.613 L1097.82 705.613 L1097.82 701.677 L1099.28 701.677 Q1102.38 701.677 1103.65 699.941 Q1104.93 698.205 1104.93 693.714 L1104.93 661.562 Z" fill="#000000" fill-rule="evenodd" fill-opacity="1" /><path clip-path="url(#clip260)" d="M1155 661.562 L1159.68 661.562 L1159.68 693.714 Q1159.68 699.964 1157.29 702.788 Q1154.93 705.613 1149.68 705.613 L1147.9 705.613 L1147.9 701.677 L1149.35 701.677 Q1152.46 701.677 1153.73 699.941 Q1155 698.205 1155 693.714 L1155 661.562 Z" fill="#000000" fill-rule="evenodd" fill-opacity="1" /><path clip-path="url(#clip260)" d="M472.125 757.679 L490.484 757.679 L490.484 762.106 L465.797 762.106 L465.797 757.679 Q468.791 754.58 473.948 749.372 Q479.13 744.137 480.458 742.627 Q482.984 739.788 483.974 737.835 Q484.989 735.856 484.989 733.955 Q484.989 730.856 482.802 728.903 Q480.64 726.95 477.151 726.95 Q474.677 726.95 471.916 727.809 Q469.182 728.669 466.057 730.413 L466.057 725.101 Q469.234 723.825 471.995 723.174 Q474.755 722.523 477.047 722.523 Q483.088 722.523 486.682 725.544 Q490.276 728.564 490.276 733.616 Q490.276 736.012 489.364 738.174 Q488.479 740.309 486.109 743.226 Q485.458 743.981 481.968 747.601 Q478.479 751.194 472.125 757.679 Z" fill="#000000" fill-rule="evenodd" fill-opacity="1" /><path clip-path="url(#clip260)" d="M512.776 726.689 Q508.713 726.689 506.656 730.7 Q504.625 734.684 504.625 742.705 Q504.625 750.7 506.656 754.71 Q508.713 758.694 512.776 758.694 Q516.864 758.694 518.895 754.71 Q520.953 750.7 520.953 742.705 Q520.953 734.684 518.895 730.7 Q516.864 726.689 512.776 726.689 M512.776 722.523 Q519.312 722.523 522.749 727.705 Q526.213 732.861 526.213 742.705 Q526.213 752.523 522.749 757.705 Q519.312 762.861 512.776 762.861 Q506.239 762.861 502.776 757.705 Q499.338 752.523 499.338 742.705 Q499.338 732.861 502.776 727.705 Q506.239 722.523 512.776 722.523 Z" fill="#000000" fill-rule="evenodd" fill-opacity="1" /><path clip-path="url(#clip260)" d="M539.989 757.679 L558.348 757.679 L558.348 762.106 L533.661 762.106 L533.661 757.679 Q536.656 754.58 541.812 749.372 Q546.994 744.137 548.322 742.627 Q550.848 739.788 551.838 737.835 Q552.853 735.856 552.853 733.955 Q552.853 730.856 550.666 728.903 Q548.505 726.95 545.015 726.95 Q542.541 726.95 539.781 727.809 Q537.046 728.669 533.921 730.413 L533.921 725.101 Q537.098 723.825 539.859 723.174 Q542.619 722.523 544.911 722.523 Q550.952 722.523 554.546 725.544 Q558.14 728.564 558.14 733.616 Q558.14 736.012 557.228 738.174 Q556.343 740.309 553.973 743.226 Q553.322 743.981 549.833 747.601 Q546.343 751.194 539.989 757.679 Z" fill="#000000" fill-rule="evenodd" fill-opacity="1" /><path clip-path="url(#clip260)" d="M580.64 726.689 Q576.577 726.689 574.52 730.7 Q572.489 734.684 572.489 742.705 Q572.489 750.7 574.52 754.71 Q576.577 758.694 580.64 758.694 Q584.728 758.694 586.76 754.71 Q588.817 750.7 588.817 742.705 Q588.817 734.684 586.76 730.7 Q584.728 726.689 580.64 726.689 M580.64 722.523 Q587.176 722.523 590.614 727.705 Q594.077 732.861 594.077 742.705 Q594.077 752.523 590.614 757.705 Q587.176 762.861 580.64 762.861 Q574.103 762.861 570.64 757.705 Q567.202 752.523 567.202 742.705 Q567.202 732.861 570.64 727.705 Q574.103 722.523 580.64 722.523 Z" fill="#000000" fill-rule="evenodd" fill-opacity="1" /><path clip-path="url(#clip260)" d="M946.914 757.679 L965.273 757.679 L965.273 762.106 L940.586 762.106 L940.586 757.679 Q943.581 754.58 948.737 749.372 Q953.919 744.137 955.247 742.627 Q957.773 739.788 958.763 737.835 Q959.778 735.856 959.778 733.955 Q959.778 730.856 957.591 728.903 Q955.429 726.95 951.94 726.95 Q949.466 726.95 946.706 727.809 Q943.971 728.669 940.846 730.413 L940.846 725.101 Q944.023 723.825 946.784 723.174 Q949.544 722.523 951.836 722.523 Q957.877 722.523 961.471 725.544 Q965.065 728.564 965.065 733.616 Q965.065 736.012 964.153 738.174 Q963.268 740.309 960.898 743.226 Q960.247 743.981 956.758 747.601 Q953.268 751.194 946.914 757.679 Z" fill="#000000" fill-rule="evenodd" fill-opacity="1" /><path clip-path="url(#clip260)" d="M987.565 726.689 Q983.502 726.689 981.445 730.7 Q979.414 734.684 979.414 742.705 Q979.414 750.7 981.445 754.71 Q983.502 758.694 987.565 758.694 Q991.653 758.694 993.684 754.71 Q995.742 750.7 995.742 742.705 Q995.742 734.684 993.684 730.7 Q991.653 726.689 987.565 726.689 M987.565 722.523 Q994.101 722.523 997.539 727.705 Q1001 732.861 1001 742.705 Q1001 752.523 997.539 757.705 Q994.101 762.861 987.565 762.861 Q981.028 762.861 977.565 757.705 Q974.127 752.523 974.127 742.705 Q974.127 732.861 977.565 727.705 Q981.028 722.523 987.565 722.523 Z" fill="#000000" fill-rule="evenodd" fill-opacity="1" /><path clip-path="url(#clip260)" d="M1014.78 757.679 L1033.14 757.679 L1033.14 762.106 L1008.45 762.106 L1008.45 757.679 Q1011.44 754.58 1016.6 749.372 Q1021.78 744.137 1023.11 742.627 Q1025.64 739.788 1026.63 737.835 Q1027.64 735.856 1027.64 733.955 Q1027.64 730.856 1025.46 728.903 Q1023.29 726.95 1019.8 726.95 Q1017.33 726.95 1014.57 727.809 Q1011.84 728.669 1008.71 730.413 L1008.71 725.101 Q1011.89 723.825 1014.65 723.174 Q1017.41 722.523 1019.7 722.523 Q1025.74 722.523 1029.34 725.544 Q1032.93 728.564 1032.93 733.616 Q1032.93 736.012 1032.02 738.174 Q1031.13 740.309 1028.76 743.226 Q1028.11 743.981 1024.62 747.601 Q1021.13 751.194 1014.78 757.679 Z" fill="#000000" fill-rule="evenodd" fill-opacity="1" /><path clip-path="url(#clip260)" d="M1045.09 757.679 L1053.68 757.679 L1053.68 728.017 L1044.34 729.892 L1044.34 725.101 L1053.63 723.226 L1058.89 723.226 L1058.89 757.679 L1067.49 757.679 L1067.49 762.106 L1045.09 762.106 L1045.09 757.679 Z" fill="#000000" fill-rule="evenodd" fill-opacity="1" /><polyline clip-path="url(#clip262)" style="stroke:#000000; stroke-linecap:butt; stroke-linejoin:round; stroke-width:2; stroke-opacity:0.1; fill:none" points="
  211.855,627.509 1232.76,627.509 
  "/>
<polyline clip-path="url(#clip262)" style="stroke:#000000; stroke-linecap:butt; stroke-linejoin:round; stroke-width:2; stroke-opacity:0.1; fill:none" points="
  211.855,456.793 1232.76,456.793 
  "/>
<polyline clip-path="url(#clip262)" style="stroke:#000000; stroke-linecap:butt; stroke-linejoin:round; stroke-width:2; stroke-opacity:0.1; fill:none" points="
  211.855,286.076 1232.76,286.076 
  "/>
<polyline clip-path="url(#clip262)" style="stroke:#000000; stroke-linecap:butt; stroke-linejoin:round; stroke-width:2; stroke-opacity:0.1; fill:none" points="
  211.855,115.36 1232.76,115.36 
  "/>
<polyline clip-path="url(#clip260)" style="stroke:#000000; stroke-linecap:butt; stroke-linejoin:round; stroke-width:4; stroke-opacity:1; fill:none" points="
  211.855,644.41 211.855,47.2441 
  "/>
<polyline clip-path="url(#clip260)" style="stroke:#000000; stroke-linecap:butt; stroke-linejoin:round; stroke-width:4; stroke-opacity:1; fill:none" points="
  211.855,627.509 224.106,627.509 
  "/>
<polyline clip-path="url(#clip260)" style="stroke:#000000; stroke-linecap:butt; stroke-linejoin:round; stroke-width:4; stroke-opacity:1; fill:none" points="
  211.855,456.793 224.106,456.793 
  "/>
<polyline clip-path="url(#clip260)" style="stroke:#000000; stroke-linecap:butt; stroke-linejoin:round; stroke-width:4; stroke-opacity:1; fill:none" points="
  211.855,286.076 224.106,286.076 
  "/>
<polyline clip-path="url(#clip260)" style="stroke:#000000; stroke-linecap:butt; stroke-linejoin:round; stroke-width:4; stroke-opacity:1; fill:none" points="
  211.855,115.36 224.106,115.36 
  "/>
<path clip-path="url(#clip260)" d="M180.711 613.308 Q177.1 613.308 175.271 616.872 Q173.466 620.414 173.466 627.544 Q173.466 634.65 175.271 638.215 Q177.1 641.757 180.711 641.757 Q184.345 641.757 186.151 638.215 Q187.98 634.65 187.98 627.544 Q187.98 620.414 186.151 616.872 Q184.345 613.308 180.711 613.308 M180.711 609.604 Q186.521 609.604 189.577 614.21 Q192.655 618.794 192.655 627.544 Q192.655 636.27 189.577 640.877 Q186.521 645.46 180.711 645.46 Q174.901 645.46 171.822 640.877 Q168.767 636.27 168.767 627.544 Q168.767 618.794 171.822 614.21 Q174.901 609.604 180.711 609.604 Z" fill="#000000" fill-rule="evenodd" fill-opacity="1" /><path clip-path="url(#clip260)" d="M111.198 470.137 L118.836 470.137 L118.836 443.772 L110.526 445.438 L110.526 441.179 L118.79 439.513 L123.466 439.513 L123.466 470.137 L131.105 470.137 L131.105 474.073 L111.198 474.073 L111.198 470.137 Z" fill="#000000" fill-rule="evenodd" fill-opacity="1" /><path clip-path="url(#clip260)" d="M150.549 442.591 Q146.938 442.591 145.109 446.156 Q143.304 449.698 143.304 456.827 Q143.304 463.934 145.109 467.499 Q146.938 471.04 150.549 471.04 Q154.183 471.04 155.989 467.499 Q157.818 463.934 157.818 456.827 Q157.818 449.698 155.989 446.156 Q154.183 442.591 150.549 442.591 M150.549 438.888 Q156.359 438.888 159.415 443.494 Q162.494 448.077 162.494 456.827 Q162.494 465.554 159.415 470.161 Q156.359 474.744 150.549 474.744 Q144.739 474.744 141.66 470.161 Q138.605 465.554 138.605 456.827 Q138.605 448.077 141.66 443.494 Q144.739 438.888 150.549 438.888 Z" fill="#000000" fill-rule="evenodd" fill-opacity="1" /><path clip-path="url(#clip260)" d="M180.711 442.591 Q177.1 442.591 175.271 446.156 Q173.466 449.698 173.466 456.827 Q173.466 463.934 175.271 467.499 Q177.1 471.04 180.711 471.04 Q184.345 471.04 186.151 467.499 Q187.98 463.934 187.98 456.827 Q187.98 449.698 186.151 446.156 Q184.345 442.591 180.711 442.591 M180.711 438.888 Q186.521 438.888 189.577 443.494 Q192.655 448.077 192.655 456.827 Q192.655 465.554 189.577 470.161 Q186.521 474.744 180.711 474.744 Q174.901 474.744 171.822 470.161 Q168.767 465.554 168.767 456.827 Q168.767 448.077 171.822 443.494 Q174.901 438.888 180.711 438.888 Z" fill="#000000" fill-rule="evenodd" fill-opacity="1" /><path clip-path="url(#clip260)" d="M114.415 299.421 L130.734 299.421 L130.734 303.356 L108.79 303.356 L108.79 299.421 Q111.452 296.666 116.035 292.037 Q120.642 287.384 121.822 286.042 Q124.068 283.518 124.947 281.782 Q125.85 280.023 125.85 278.333 Q125.85 275.579 123.906 273.843 Q121.985 272.106 118.883 272.106 Q116.684 272.106 114.23 272.87 Q111.799 273.634 109.022 275.185 L109.022 270.463 Q111.846 269.329 114.299 268.75 Q116.753 268.171 118.79 268.171 Q124.16 268.171 127.355 270.856 Q130.549 273.542 130.549 278.032 Q130.549 280.162 129.739 282.083 Q128.952 283.981 126.846 286.574 Q126.267 287.245 123.165 290.463 Q120.063 293.657 114.415 299.421 Z" fill="#000000" fill-rule="evenodd" fill-opacity="1" /><path clip-path="url(#clip260)" d="M150.549 271.875 Q146.938 271.875 145.109 275.44 Q143.304 278.981 143.304 286.111 Q143.304 293.217 145.109 296.782 Q146.938 300.324 150.549 300.324 Q154.183 300.324 155.989 296.782 Q157.818 293.217 157.818 286.111 Q157.818 278.981 155.989 275.44 Q154.183 271.875 150.549 271.875 M150.549 268.171 Q156.359 268.171 159.415 272.778 Q162.494 277.361 162.494 286.111 Q162.494 294.838 159.415 299.444 Q156.359 304.028 150.549 304.028 Q144.739 304.028 141.66 299.444 Q138.605 294.838 138.605 286.111 Q138.605 277.361 141.66 272.778 Q144.739 268.171 150.549 268.171 Z" fill="#000000" fill-rule="evenodd" fill-opacity="1" /><path clip-path="url(#clip260)" d="M180.711 271.875 Q177.1 271.875 175.271 275.44 Q173.466 278.981 173.466 286.111 Q173.466 293.217 175.271 296.782 Q177.1 300.324 180.711 300.324 Q184.345 300.324 186.151 296.782 Q187.98 293.217 187.98 286.111 Q187.98 278.981 186.151 275.44 Q184.345 271.875 180.711 271.875 M180.711 268.171 Q186.521 268.171 189.577 272.778 Q192.655 277.361 192.655 286.111 Q192.655 294.838 189.577 299.444 Q186.521 304.028 180.711 304.028 Q174.901 304.028 171.822 299.444 Q168.767 294.838 168.767 286.111 Q168.767 277.361 171.822 272.778 Q174.901 268.171 180.711 268.171 Z" fill="#000000" fill-rule="evenodd" fill-opacity="1" /><path clip-path="url(#clip260)" d="M124.554 114.006 Q127.91 114.723 129.785 116.992 Q131.684 119.26 131.684 122.594 Q131.684 127.709 128.165 130.51 Q124.647 133.311 118.165 133.311 Q115.989 133.311 113.674 132.871 Q111.383 132.455 108.929 131.598 L108.929 127.084 Q110.873 128.219 113.188 128.797 Q115.503 129.376 118.026 129.376 Q122.424 129.376 124.716 127.64 Q127.031 125.904 127.031 122.594 Q127.031 119.538 124.878 117.825 Q122.748 116.089 118.929 116.089 L114.901 116.089 L114.901 112.247 L119.114 112.247 Q122.563 112.247 124.392 110.881 Q126.221 109.492 126.221 106.899 Q126.221 104.237 124.322 102.825 Q122.447 101.39 118.929 101.39 Q117.008 101.39 114.809 101.807 Q112.61 102.223 109.971 103.103 L109.971 98.9364 Q112.633 98.1957 114.948 97.8253 Q117.285 97.4549 119.346 97.4549 Q124.67 97.4549 127.772 99.8855 Q130.873 102.293 130.873 106.413 Q130.873 109.284 129.23 111.274 Q127.586 113.242 124.554 114.006 Z" fill="#000000" fill-rule="evenodd" fill-opacity="1" /><path clip-path="url(#clip260)" d="M150.549 101.159 Q146.938 101.159 145.109 104.723 Q143.304 108.265 143.304 115.395 Q143.304 122.501 145.109 126.066 Q146.938 129.608 150.549 129.608 Q154.183 129.608 155.989 126.066 Q157.818 122.501 157.818 115.395 Q157.818 108.265 155.989 104.723 Q154.183 101.159 150.549 101.159 M150.549 97.4549 Q156.359 97.4549 159.415 102.061 Q162.494 106.645 162.494 115.395 Q162.494 124.121 159.415 128.728 Q156.359 133.311 150.549 133.311 Q144.739 133.311 141.66 128.728 Q138.605 124.121 138.605 115.395 Q138.605 106.645 141.66 102.061 Q144.739 97.4549 150.549 97.4549 Z" fill="#000000" fill-rule="evenodd" fill-opacity="1" /><path clip-path="url(#clip260)" d="M180.711 101.159 Q177.1 101.159 175.271 104.723 Q173.466 108.265 173.466 115.395 Q173.466 122.501 175.271 126.066 Q177.1 129.608 180.711 129.608 Q184.345 129.608 186.151 126.066 Q187.98 122.501 187.98 115.395 Q187.98 108.265 186.151 104.723 Q184.345 101.159 180.711 101.159 M180.711 97.4549 Q186.521 97.4549 189.577 102.061 Q192.655 106.645 192.655 115.395 Q192.655 124.121 189.577 128.728 Q186.521 133.311 180.711 133.311 Q174.901 133.311 171.822 128.728 Q168.767 124.121 168.767 115.395 Q168.767 106.645 171.822 102.061 Q174.901 97.4549 180.711 97.4549 Z" fill="#000000" fill-rule="evenodd" fill-opacity="1" /><path clip-path="url(#clip260)" d="M54.3586 421.933 Q51.1294 420.136 49.593 417.636 Q48.0565 415.136 48.0565 411.751 Q48.0565 407.194 51.2596 404.72 Q54.4367 402.246 60.3221 402.246 L77.9262 402.246 L77.9262 407.064 L60.4783 407.064 Q56.2856 407.064 54.2544 408.548 Q52.2232 410.032 52.2232 413.079 Q52.2232 416.803 54.6971 418.965 Q57.1711 421.126 61.4419 421.126 L77.9262 421.126 L77.9262 425.944 L60.4783 425.944 Q56.2596 425.944 54.2544 427.428 Q52.2232 428.912 52.2232 432.011 Q52.2232 435.683 54.7232 437.845 Q57.1971 440.006 61.4419 440.006 L77.9262 440.006 L77.9262 444.824 L48.7596 444.824 L48.7596 440.006 L53.2909 440.006 Q50.6086 438.366 49.3326 436.074 Q48.0565 433.782 48.0565 430.631 Q48.0565 427.454 49.6711 425.241 Q51.2857 423.001 54.3586 421.933 Z" fill="#000000" fill-rule="evenodd" fill-opacity="1" /><path clip-path="url(#clip260)" d="M48.7596 392.689 L48.7596 387.897 L77.9262 387.897 L77.9262 392.689 L48.7596 392.689 M37.4055 392.689 L37.4055 387.897 L43.4732 387.897 L43.4732 392.689 L37.4055 392.689 Z" fill="#000000" fill-rule="evenodd" fill-opacity="1" /><path clip-path="url(#clip260)" d="M37.4055 377.871 L37.4055 373.079 L77.9262 373.079 L77.9262 377.871 L37.4055 377.871 Z" fill="#000000" fill-rule="evenodd" fill-opacity="1" /><path clip-path="url(#clip260)" d="M37.4055 363.053 L37.4055 358.262 L77.9262 358.262 L77.9262 363.053 L37.4055 363.053 Z" fill="#000000" fill-rule="evenodd" fill-opacity="1" /><path clip-path="url(#clip260)" d="M48.7596 348.236 L48.7596 343.444 L77.9262 343.444 L77.9262 348.236 L48.7596 348.236 M37.4055 348.236 L37.4055 343.444 L43.4732 343.444 L43.4732 348.236 L37.4055 348.236 Z" fill="#000000" fill-rule="evenodd" fill-opacity="1" /><path clip-path="url(#clip260)" d="M52.119 322.116 Q52.119 325.97 55.1398 328.21 Q58.1346 330.449 63.3689 330.449 Q68.6033 330.449 71.6241 328.236 Q74.6189 325.996 74.6189 322.116 Q74.6189 318.288 71.5981 316.048 Q68.5772 313.809 63.3689 313.809 Q58.1867 313.809 55.1659 316.048 Q52.119 318.288 52.119 322.116 M48.0565 322.116 Q48.0565 315.866 52.119 312.299 Q56.1815 308.731 63.3689 308.731 Q70.5304 308.731 74.6189 312.299 Q78.6814 315.866 78.6814 322.116 Q78.6814 328.392 74.6189 331.96 Q70.5304 335.502 63.3689 335.502 Q56.1815 335.502 52.119 331.96 Q48.0565 328.392 48.0565 322.116 Z" fill="#000000" fill-rule="evenodd" fill-opacity="1" /><path clip-path="url(#clip260)" d="M60.3221 276.543 L77.9262 276.543 L77.9262 281.335 L60.4783 281.335 Q56.3377 281.335 54.2805 282.95 Q52.2232 284.564 52.2232 287.793 Q52.2232 291.674 54.6971 293.913 Q57.1711 296.153 61.4419 296.153 L77.9262 296.153 L77.9262 300.97 L48.7596 300.97 L48.7596 296.153 L53.2909 296.153 Q50.6607 294.434 49.3586 292.116 Q48.0565 289.773 48.0565 286.726 Q48.0565 281.7 51.1815 279.122 Q54.2805 276.543 60.3221 276.543 Z" fill="#000000" fill-rule="evenodd" fill-opacity="1" /><path clip-path="url(#clip260)" d="M49.619 248.393 L54.1502 248.393 Q53.1086 250.424 52.5878 252.611 Q52.0669 254.799 52.0669 257.143 Q52.0669 260.71 53.1607 262.507 Q54.2544 264.278 56.4419 264.278 Q58.1086 264.278 59.0721 263.002 Q60.0096 261.726 60.869 257.872 L61.2335 256.231 Q62.3273 251.127 64.3325 248.992 Q66.3116 246.83 69.8793 246.83 Q73.9418 246.83 76.3116 250.059 Q78.6814 253.262 78.6814 258.887 Q78.6814 261.231 78.2126 263.783 Q77.7699 266.309 76.8585 269.122 L71.9106 269.122 Q73.2908 266.465 73.9939 263.887 Q74.671 261.309 74.671 258.783 Q74.671 255.398 73.5251 253.575 Q72.3533 251.752 70.2439 251.752 Q68.2908 251.752 67.2491 253.08 Q66.2075 254.382 65.2439 258.835 L64.8533 260.502 Q63.9158 264.955 61.9887 266.934 Q60.0356 268.913 56.6502 268.913 Q52.5357 268.913 50.2961 265.997 Q48.0565 263.08 48.0565 257.715 Q48.0565 255.059 48.4471 252.715 Q48.8378 250.372 49.619 248.393 Z" fill="#000000" fill-rule="evenodd" fill-opacity="1" /><polyline clip-path="url(#clip262)" style="stroke:#4100eb; stroke-linecap:butt; stroke-linejoin:round; stroke-width:8; stroke-opacity:1; fill:none" points="
  274.132,627.509 275.802,627.509 277.471,627.509 279.14,627.509 280.809,627.509 282.478,627.509 284.147,627.509 285.817,627.509 287.486,627.509 289.155,627.509 
  290.824,627.509 292.493,627.509 294.162,627.509 295.832,627.509 297.501,627.509 299.17,627.509 300.839,627.509 302.508,627.509 304.177,627.509 305.847,627.509 
  307.516,627.509 309.185,627.509 310.854,627.509 312.523,627.509 314.193,627.509 315.862,627.509 317.531,627.509 319.2,627.509 320.869,627.509 322.538,627.509 
  324.208,627.509 325.877,627.509 327.546,627.509 329.215,627.509 330.884,627.509 332.553,627.509 334.223,627.509 335.892,627.509 337.561,627.509 339.23,627.509 
  340.899,627.509 342.568,627.509 344.238,627.509 345.907,627.509 347.576,627.509 349.245,627.509 350.914,627.509 352.584,627.509 354.253,627.509 355.922,627.509 
  357.591,627.509 359.26,627.509 360.929,627.508 362.599,627.508 364.268,627.508 365.937,627.508 367.606,627.508 369.275,627.507 370.944,627.506 372.614,627.505 
  374.283,627.504 375.952,627.502 377.621,627.499 379.29,627.497 380.96,627.494 382.629,627.491 384.298,627.488 385.967,627.485 387.636,627.482 389.305,627.48 
  390.975,627.476 392.644,627.473 394.313,627.47 395.982,627.466 397.651,627.463 399.32,627.461 400.99,627.459 402.659,627.457 404.328,627.456 405.997,627.455 
  407.666,627.455 409.335,627.456 411.005,627.455 412.674,627.457 414.343,627.457 416.012,627.458 417.681,627.459 419.351,627.459 421.02,627.46 422.689,627.46 
  424.358,627.46 426.027,627.46 427.696,627.46 429.366,627.46 431.035,627.459 432.704,627.457 434.373,627.457 436.042,627.458 437.711,627.458 439.381,627.459 
  441.05,627.46 442.719,627.46 444.388,627.461 446.057,627.462 447.726,627.462 449.396,627.462 451.065,627.463 452.734,627.463 454.403,627.465 456.072,627.466 
  457.742,627.467 459.411,627.468 461.08,627.469 462.749,627.469 464.418,627.47 466.087,627.47 467.757,627.47 469.426,627.471 471.095,627.47 472.764,627.47 
  474.433,627.469 476.102,627.47 477.772,627.47 479.441,627.471 481.11,627.47 482.779,627.471 484.448,627.472 486.117,627.473 487.787,627.473 489.456,627.473 
  491.125,627.473 492.794,627.473 494.463,627.472 496.133,627.472 497.802,627.471 499.471,627.472 501.14,627.471 502.809,627.471 504.478,627.471 506.148,627.472 
  507.817,627.473 509.486,627.472 511.155,627.472 512.824,627.472 514.493,627.472 516.163,627.472 517.832,627.471 519.501,627.47 521.17,627.469 522.839,627.468 
  524.509,627.466 526.178,627.465 527.847,627.463 529.516,627.461 531.185,627.458 532.854,627.455 534.524,627.452 536.193,627.449 537.862,627.446 539.531,627.443 
  541.2,627.441 542.869,627.437 544.539,627.434 546.208,627.431 547.877,627.428 549.546,627.426 551.215,627.425 552.884,627.423 554.554,627.421 556.223,627.419 
  557.892,627.418 559.561,627.415 561.23,627.413 562.9,627.41 564.569,627.406 566.238,627.403 567.907,627.401 569.576,627.397 571.245,627.397 572.915,627.396 
  574.584,627.395 576.253,627.395 577.922,627.396 579.591,627.395 581.26,627.397 582.93,627.396 584.599,627.395 586.268,627.397 587.937,627.397 589.606,627.398 
  591.275,627.398 592.945,627.399 594.614,627.4 596.283,627.402 597.952,627.403 599.621,627.406 601.291,627.408 602.96,627.411 604.629,627.414 606.298,627.416 
  607.967,627.416 609.636,627.417 611.306,627.417 612.975,627.417 614.644,627.417 616.313,627.418 617.982,627.418 619.651,627.419 621.321,627.421 622.99,627.423 
  624.659,627.426 626.328,627.428 627.997,627.43 629.666,627.433 631.336,627.434 633.005,627.437 634.674,627.436 636.343,627.437 638.012,627.436 639.682,627.437 
  641.351,627.437 643.02,627.437 644.689,627.437 646.358,627.438 648.027,627.437 649.697,627.44 651.366,627.44 653.035,627.438 654.704,627.439 656.373,627.44 
  658.042,627.442 659.712,627.446 661.381,627.446 663.05,627.448 664.719,627.449 666.388,627.45 668.058,627.449 669.727,627.446 671.396,627.444 673.065,627.442 
  674.734,627.44 676.403,627.44 678.073,627.439 679.742,627.439 681.411,627.438 683.08,627.438 684.749,627.437 686.418,627.437 688.088,627.436 689.757,627.436 
  691.426,627.435 693.095,627.437 694.764,627.435 696.433,627.435 698.103,627.435 699.772,627.435 701.441,627.434 703.11,627.434 704.779,627.428 706.449,627.428 
  708.118,627.426 709.787,627.423 711.456,627.422 713.125,627.421 714.794,627.419 716.464,627.422 718.133,627.419 719.802,627.418 721.471,627.416 723.14,627.413 
  724.809,627.412 726.479,627.412 728.148,627.407 729.817,627.406 731.486,627.405 733.155,627.402 734.824,627.399 736.494,627.393 738.163,627.39 739.832,627.387 
  741.501,627.384 743.17,627.38 744.84,627.376 746.509,627.372 748.178,627.371 749.847,627.368 751.516,627.363 753.185,627.358 754.855,627.352 756.524,627.345 
  758.193,627.336 759.862,627.326 761.531,627.319 763.2,627.31 764.87,627.299 766.539,627.29 768.208,627.28 769.877,627.268 771.546,627.26 773.215,627.252 
  774.885,627.243 776.554,627.238 778.223,627.231 779.892,627.225 781.561,627.221 783.231,627.218 784.9,627.216 786.569,627.213 788.238,627.209 789.907,627.207 
  791.576,627.228 793.246,627.226 794.915,627.231 796.584,627.232 798.253,627.235 799.922,627.234 801.591,627.229 803.261,627.201 804.93,627.194 806.599,627.181 
  808.268,627.172 809.937,627.163 811.607,627.155 813.276,627.15 814.945,627.148 816.614,627.154 818.283,627.154 819.952,627.15 821.622,627.151 823.291,627.156 
  824.96,627.149 826.629,627.145 828.298,627.136 829.967,627.139 831.637,627.14 833.306,627.14 834.975,627.14 836.644,627.145 838.313,627.155 839.982,627.192 
  841.652,627.186 843.321,627.193 844.99,627.196 846.659,627.196 848.328,627.196 849.998,627.187 851.667,627.176 853.336,627.158 855.005,627.145 856.674,627.13 
  858.343,627.122 860.013,627.115 861.682,627.103 863.351,627.066 865.02,627.075 866.689,627.074 868.358,627.08 870.028,627.081 871.697,627.088 873.366,627.098 
  875.035,627.113 876.704,627.125 878.373,627.134 880.043,627.155 881.712,627.165 883.381,627.176 885.05,627.188 886.719,627.2 888.389,627.208 890.058,627.218 
  891.727,627.214 893.396,627.223 895.065,627.23 896.734,627.236 898.404,627.243 900.073,627.251 901.742,627.255 903.411,627.259 905.08,627.267 906.749,627.276 
  908.419,627.286 910.088,627.294 911.757,627.301 913.426,627.308 915.095,627.32 916.764,627.324 918.434,627.33 920.103,627.335 921.772,627.343 923.441,627.348 
  925.11,627.353 926.78,627.363 928.449,627.37 930.118,627.376 931.787,627.385 933.456,627.39 935.125,627.394 936.795,627.396 938.464,627.395 940.133,627.393 
  941.802,627.392 943.471,627.39 945.14,627.39 946.81,627.392 948.479,627.393 950.148,627.394 951.817,627.397 953.486,627.399 955.156,627.402 956.825,627.405 
  958.494,627.406 960.163,627.409 961.832,627.408 963.501,627.409 965.171,627.411 966.84,627.413 968.509,627.413 970.178,627.415 971.847,627.416 973.516,627.415 
  975.186,627.415 976.855,627.415 978.524,627.416 980.193,627.416 981.862,627.415 983.531,627.416 985.201,627.417 986.87,627.416 988.539,627.411 990.208,627.409 
  991.877,627.406 993.547,627.404 995.216,627.402 996.885,627.398 998.554,627.396 1000.22,627.399 1001.89,627.397 1003.56,627.399 1005.23,627.398 1006.9,627.4 
  1008.57,627.398 1010.24,627.398 1011.91,627.397 1013.58,627.396 1015.25,627.393 1016.91,627.393 1018.58,627.39 1020.25,627.391 1021.92,627.388 1023.59,627.387 
  1025.26,627.389 1026.93,627.389 1028.6,627.392 1030.27,627.394 1031.94,627.394 1033.61,627.398 1035.28,627.401 1036.95,627.403 1038.61,627.407 1040.28,627.408 
  1041.95,627.409 1043.62,627.415 1045.29,627.417 1046.96,627.419 1048.63,627.421 1050.3,627.423 1051.97,627.424 1053.64,627.425 1055.31,627.424 1056.98,627.427 
  1058.64,627.429 1060.31,627.432 1061.98,627.434 1063.65,627.437 1065.32,627.439 1066.99,627.442 1068.66,627.444 1070.33,627.446 1072,627.448 1073.67,627.45 
  1075.34,627.451 1077.01,627.453 1078.67,627.454 1080.34,627.456 1082.01,627.457 1083.68,627.46 1085.35,627.463 1087.02,627.465 1088.69,627.466 1090.36,627.467 
  1092.03,627.468 1093.7,627.469 1095.37,627.47 1097.04,627.471 1098.7,627.473 1100.37,627.475 1102.04,627.48 1103.71,627.48 1105.38,627.481 1107.05,627.483 
  1108.72,627.485 1110.39,627.485 1112.06,627.486 1113.73,627.482 1115.4,627.484 1117.07,627.483 1118.73,627.484 1120.4,627.484 1122.07,627.484 1123.74,627.484 
  1125.41,627.485 1127.08,627.486 1128.75,627.487 1130.42,627.488 1132.09,627.489 1133.76,627.489 1135.43,627.49 1137.1,627.49 1138.76,627.49 1140.43,627.49 
  1142.1,627.489 1143.77,627.488 1145.44,627.489 1147.11,627.489 1148.78,627.489 1150.45,627.488 1152.12,627.488 1153.79,627.487 1155.46,627.486 1157.13,627.486 
  1158.79,627.486 1160.46,627.489 1162.13,627.487 1163.8,627.483 1165.47,627.481 1167.14,627.478 1168.81,627.477 1170.48,627.476 1172.15,627.469 1173.82,627.465 
  1175.49,627.464 1177.16,627.461 1178.82,627.456 1180.49,627.456 1182.16,627.455 1183.83,627.449 1185.5,627.444 
  "/>
</svg>
